<?xml version="1.0" encoding="utf-8"?>
<!DOCTYPE svg PUBLIC "-//W3C//DTD SVG 1.1//EN" "http://www.w3.org/Graphics/SVG/1.1/DTD/svg11.dtd">
<svg version="1.1" xmlns="http://www.w3.org/2000/svg" xmlns:xlink="http://www.w3.org/1999/xlink" x="0px" y="0px" width="1024px" height="1024px" viewBox="0 0 1024 1024" enable-background="new 0 0 1024 1024" xml:space="preserve">
<metadata> Free Icon Download -- www.onlinewebfonts.com </metadata>

  <path d="M535.893333 512l209.92-209.92c6.826667-6.826667 6.826667-17.066667 0-23.893333s-17.066667-6.826667-23.893333 0L512 488.106667 302.08 278.186667c-6.826667-6.826667-17.066667-6.826667-23.893333 0-6.826667 6.826667-6.826667 17.066667 0 23.893333L488.106667 512 278.186667 721.92c-6.826667 6.826667-6.826667 17.066667 0 23.893333 3.413333 3.413333 8.533333 5.12 11.946667 5.12s8.533333-1.706667 11.946667-5.12L512 535.893333l209.92 209.92c3.413333 3.413333 8.533333 5.12 11.946667 5.12s8.533333-1.706667 11.946667-5.12c6.826667-6.826667 6.826667-17.066667 0-23.893333L535.893333 512z" />


</svg>